<?xml version="1.0" encoding="utf-8"?>
<!-- Generator: Adobe Illustrator 28.2.0, SVG Export Plug-In . SVG Version: 6.00 Build 0)  -->
<svg version="1.1" id="Layer_1" xmlns="http://www.w3.org/2000/svg" xmlns:xlink="http://www.w3.org/1999/xlink" x="0px" y="0px"
	 viewBox="0 0 92.5 97.5" style="enable-background:new 0 0 92.5 97.5;" xml:space="preserve">
<style type="text/css">
	.st0{fill:#F98039;}
</style>
<path class="st0" d="M90.8,87.5L73.1,69.8c6.6-7.4,10.7-17.2,10.7-27.9C83.8,18.8,65,0,41.9,0S0,18.8,0,41.9s18.8,41.9,41.9,41.9
	c8.2,0,15.8-2.4,22.2-6.4l18.4,18.4c1.1,1.1,2.6,1.7,4.1,1.7s3-0.6,4.1-1.7C93.1,93.5,93.1,89.8,90.8,87.5z M11.7,41.9
	c0-16.6,13.5-30.2,30.2-30.2S72,25.3,72,41.9S58.5,72.1,41.9,72.1S11.7,58.6,11.7,41.9z"/>
</svg>
